<svg width="70" height="91" viewBox="0 0 70 91" fill="none" xmlns="http://www.w3.org/2000/svg">
<path d="M2.30464 4.55027C23.9312 2.88908 46.1476 10.1333 58.3263 29.0145C70.6203 48.0169 66.2269 70.2113 50.4047 85.2789C50.4047 85.2789 50.5264 85.163 50.4111 85.0419C51.4615 81.2707 53.1141 77.157 51.916 73.2182C51.2625 71.0697 48.2773 71.8343 48.5721 74.0936C48.9566 77.4218 48.1688 80.2502 47.3746 83.3155C46.7341 85.08 45.4722 87.898 46.7279 89.704C47.9835 91.5099 50.1423 90.6086 51.8143 90.1709C55.6386 89.0689 59.4629 87.9669 63.1784 86.5068C64.735 85.948 64.2032 83.6836 62.5376 83.8843C59.6806 84.2961 56.8107 85.1818 54.0626 85.9517C53.7039 86.0624 53.3451 86.1731 52.9864 86.2839C70.6216 74.3387 73.0931 48.6638 63.496 30.7875C51.6439 8.59353 26.5191 -0.729883 2.40057 0.995383C0.145654 1.06463 -0.0719767 4.73543 2.30464 4.55027Z" fill="#FFC804"/>
</svg>
